<mxfile host="app.diagrams.net" modified="2022-09-25T01:53:47.619Z" agent="5.0 (Windows NT 10.0; Win64; x64) AppleWebKit/537.36 (KHTML, like Gecko) Chrome/105.0.0.0 Safari/537.36 Edg/105.0.1343.50" etag="mBeHD7NBU9HEnDJxu592" version="20.3.6" type="github" pages="2">
  <diagram id="EEWwwwGxgyMunJMrgCb3" name="第 1 页">
    <mxGraphModel dx="1694" dy="1651" grid="1" gridSize="10" guides="1" tooltips="1" connect="1" arrows="1" fold="1" page="1" pageScale="1" pageWidth="827" pageHeight="1169" math="0" shadow="0">
      <root>
        <mxCell id="0" />
        <mxCell id="1" parent="0" />
        <mxCell id="ovginV6Umtj_G_Ys04fF-1" value="已知函数关系" style="rounded=1;whiteSpace=wrap;html=1;" vertex="1" parent="1">
          <mxGeometry x="280" y="80" width="160" height="30" as="geometry" />
        </mxCell>
        <mxCell id="ovginV6Umtj_G_Ys04fF-2" value="未知映射" style="rounded=1;whiteSpace=wrap;html=1;" vertex="1" parent="1">
          <mxGeometry x="280" y="160" width="160" height="30" as="geometry" />
        </mxCell>
        <mxCell id="ovginV6Umtj_G_Ys04fF-3" value="" style="shape=flexArrow;endArrow=classic;html=1;rounded=0;fillColor=#dae8fc;strokeColor=#6c8ebf;" edge="1" parent="1">
          <mxGeometry width="50" height="50" relative="1" as="geometry">
            <mxPoint x="190" y="94.5" as="sourcePoint" />
            <mxPoint x="270" y="94.5" as="targetPoint" />
            <Array as="points">
              <mxPoint x="280" y="94.5" />
            </Array>
          </mxGeometry>
        </mxCell>
        <mxCell id="ovginV6Umtj_G_Ys04fF-4" value="输入" style="text;html=1;align=center;verticalAlign=middle;resizable=0;points=[];autosize=1;strokeColor=none;fillColor=none;" vertex="1" parent="1">
          <mxGeometry x="200" y="60" width="50" height="30" as="geometry" />
        </mxCell>
        <mxCell id="ovginV6Umtj_G_Ys04fF-5" value="输出" style="text;html=1;align=center;verticalAlign=middle;resizable=0;points=[];autosize=1;strokeColor=none;fillColor=none;" vertex="1" parent="1">
          <mxGeometry x="460" y="60" width="50" height="30" as="geometry" />
        </mxCell>
        <mxCell id="ovginV6Umtj_G_Ys04fF-6" value="输入" style="text;html=1;align=center;verticalAlign=middle;resizable=0;points=[];autosize=1;strokeColor=none;fillColor=none;" vertex="1" parent="1">
          <mxGeometry x="200" y="140" width="50" height="30" as="geometry" />
        </mxCell>
        <mxCell id="ovginV6Umtj_G_Ys04fF-7" value="" style="shape=flexArrow;endArrow=classic;html=1;rounded=0;fillColor=#dae8fc;strokeColor=#6c8ebf;" edge="1" parent="1">
          <mxGeometry width="50" height="50" relative="1" as="geometry">
            <mxPoint x="450" y="174.5" as="sourcePoint" />
            <mxPoint x="530" y="174.5" as="targetPoint" />
            <Array as="points">
              <mxPoint x="540" y="174.5" />
            </Array>
          </mxGeometry>
        </mxCell>
        <mxCell id="ovginV6Umtj_G_Ys04fF-8" value="" style="shape=flexArrow;endArrow=classic;html=1;rounded=0;fillColor=#dae8fc;strokeColor=#6c8ebf;" edge="1" parent="1">
          <mxGeometry width="50" height="50" relative="1" as="geometry">
            <mxPoint x="190" y="174.5" as="sourcePoint" />
            <mxPoint x="270" y="174.5" as="targetPoint" />
            <Array as="points">
              <mxPoint x="280" y="174.5" />
            </Array>
          </mxGeometry>
        </mxCell>
        <mxCell id="ovginV6Umtj_G_Ys04fF-9" value="" style="shape=flexArrow;endArrow=classic;html=1;rounded=0;fillColor=#dae8fc;strokeColor=#6c8ebf;" edge="1" parent="1">
          <mxGeometry width="50" height="50" relative="1" as="geometry">
            <mxPoint x="450" y="94.5" as="sourcePoint" />
            <mxPoint x="530" y="94.5" as="targetPoint" />
            <Array as="points">
              <mxPoint x="540" y="94.5" />
            </Array>
          </mxGeometry>
        </mxCell>
        <mxCell id="ovginV6Umtj_G_Ys04fF-10" value="输出" style="text;html=1;align=center;verticalAlign=middle;resizable=0;points=[];autosize=1;strokeColor=none;fillColor=none;" vertex="1" parent="1">
          <mxGeometry x="460" y="140" width="50" height="30" as="geometry" />
        </mxCell>
        <mxCell id="ovginV6Umtj_G_Ys04fF-48" style="edgeStyle=orthogonalEdgeStyle;rounded=0;orthogonalLoop=1;jettySize=auto;html=1;exitX=0;exitY=0.5;exitDx=0;exitDy=0;fillColor=#dae8fc;strokeColor=#6c8ebf;" edge="1" parent="1" source="ovginV6Umtj_G_Ys04fF-11" target="ovginV6Umtj_G_Ys04fF-17">
          <mxGeometry relative="1" as="geometry">
            <Array as="points">
              <mxPoint x="280" y="250" />
              <mxPoint x="225" y="250" />
            </Array>
          </mxGeometry>
        </mxCell>
        <mxCell id="ovginV6Umtj_G_Ys04fF-56" style="edgeStyle=orthogonalEdgeStyle;rounded=0;orthogonalLoop=1;jettySize=auto;html=1;exitX=1;exitY=0.5;exitDx=0;exitDy=0;entryX=0;entryY=0.5;entryDx=0;entryDy=0;fillColor=#dae8fc;strokeColor=#6c8ebf;" edge="1" parent="1" source="ovginV6Umtj_G_Ys04fF-11" target="ovginV6Umtj_G_Ys04fF-21">
          <mxGeometry relative="1" as="geometry" />
        </mxCell>
        <mxCell id="ovginV6Umtj_G_Ys04fF-74" style="edgeStyle=orthogonalEdgeStyle;rounded=0;orthogonalLoop=1;jettySize=auto;html=1;exitX=0.5;exitY=0;exitDx=0;exitDy=0;entryX=0.5;entryY=1;entryDx=0;entryDy=0;strokeColor=#FF3333;" edge="1" parent="1" source="ovginV6Umtj_G_Ys04fF-11" target="ovginV6Umtj_G_Ys04fF-2">
          <mxGeometry relative="1" as="geometry" />
        </mxCell>
        <mxCell id="ovginV6Umtj_G_Ys04fF-11" value="训练好的网络模型" style="rounded=1;whiteSpace=wrap;html=1;" vertex="1" parent="1">
          <mxGeometry x="280" y="230" width="160" height="30" as="geometry" />
        </mxCell>
        <mxCell id="ovginV6Umtj_G_Ys04fF-52" style="edgeStyle=orthogonalEdgeStyle;rounded=0;orthogonalLoop=1;jettySize=auto;html=1;exitX=0.5;exitY=0;exitDx=0;exitDy=0;entryX=0.5;entryY=1;entryDx=0;entryDy=0;fillColor=#dae8fc;strokeColor=#6c8ebf;" edge="1" parent="1" source="ovginV6Umtj_G_Ys04fF-12" target="ovginV6Umtj_G_Ys04fF-11">
          <mxGeometry relative="1" as="geometry" />
        </mxCell>
        <mxCell id="ovginV6Umtj_G_Ys04fF-12" value="保存模型" style="rounded=1;whiteSpace=wrap;html=1;" vertex="1" parent="1">
          <mxGeometry x="300" y="280" width="120" height="30" as="geometry" />
        </mxCell>
        <mxCell id="ovginV6Umtj_G_Ys04fF-55" style="edgeStyle=orthogonalEdgeStyle;rounded=0;orthogonalLoop=1;jettySize=auto;html=1;exitX=0.5;exitY=0;exitDx=0;exitDy=0;entryX=0.5;entryY=1;entryDx=0;entryDy=0;fillColor=#dae8fc;strokeColor=#6c8ebf;" edge="1" parent="1" source="ovginV6Umtj_G_Ys04fF-13" target="ovginV6Umtj_G_Ys04fF-12">
          <mxGeometry relative="1" as="geometry" />
        </mxCell>
        <mxCell id="ovginV6Umtj_G_Ys04fF-57" style="edgeStyle=orthogonalEdgeStyle;rounded=0;orthogonalLoop=1;jettySize=auto;html=1;exitX=1;exitY=0.5;exitDx=0;exitDy=0;fillColor=#dae8fc;strokeColor=#6c8ebf;entryX=0;entryY=0.5;entryDx=0;entryDy=0;" edge="1" parent="1" source="ovginV6Umtj_G_Ys04fF-13" target="ovginV6Umtj_G_Ys04fF-21">
          <mxGeometry relative="1" as="geometry">
            <mxPoint x="500" y="310" as="targetPoint" />
            <Array as="points">
              <mxPoint x="440" y="340" />
              <mxPoint x="470" y="340" />
              <mxPoint x="470" y="295" />
            </Array>
          </mxGeometry>
        </mxCell>
        <mxCell id="ovginV6Umtj_G_Ys04fF-13" value="神经网络模型训练" style="rounded=1;whiteSpace=wrap;html=1;" vertex="1" parent="1">
          <mxGeometry x="280" y="330" width="160" height="30" as="geometry" />
        </mxCell>
        <mxCell id="ovginV6Umtj_G_Ys04fF-40" style="edgeStyle=orthogonalEdgeStyle;rounded=0;orthogonalLoop=1;jettySize=auto;html=1;exitX=1;exitY=0.5;exitDx=0;exitDy=0;exitPerimeter=0;entryX=0.5;entryY=1;entryDx=0;entryDy=0;fillColor=#dae8fc;strokeColor=#6c8ebf;" edge="1" parent="1" source="ovginV6Umtj_G_Ys04fF-14" target="ovginV6Umtj_G_Ys04fF-15">
          <mxGeometry relative="1" as="geometry" />
        </mxCell>
        <mxCell id="ovginV6Umtj_G_Ys04fF-41" style="edgeStyle=orthogonalEdgeStyle;rounded=0;orthogonalLoop=1;jettySize=auto;html=1;exitX=1;exitY=0.5;exitDx=0;exitDy=0;exitPerimeter=0;entryX=0.5;entryY=0;entryDx=0;entryDy=0;fillColor=#dae8fc;strokeColor=#6c8ebf;" edge="1" parent="1" source="ovginV6Umtj_G_Ys04fF-14" target="ovginV6Umtj_G_Ys04fF-16">
          <mxGeometry relative="1" as="geometry" />
        </mxCell>
        <mxCell id="ovginV6Umtj_G_Ys04fF-14" value="数据库" style="shape=cylinder3;whiteSpace=wrap;html=1;boundedLbl=1;backgroundOutline=1;size=15;" vertex="1" parent="1">
          <mxGeometry y="270" width="90" height="60" as="geometry" />
        </mxCell>
        <mxCell id="ovginV6Umtj_G_Ys04fF-46" style="edgeStyle=orthogonalEdgeStyle;rounded=0;orthogonalLoop=1;jettySize=auto;html=1;exitX=0.5;exitY=0;exitDx=0;exitDy=0;entryX=0;entryY=0.5;entryDx=0;entryDy=0;fillColor=#dae8fc;strokeColor=#6c8ebf;" edge="1" parent="1" source="ovginV6Umtj_G_Ys04fF-15" target="ovginV6Umtj_G_Ys04fF-11">
          <mxGeometry relative="1" as="geometry">
            <Array as="points">
              <mxPoint x="160" y="245" />
            </Array>
          </mxGeometry>
        </mxCell>
        <mxCell id="ovginV6Umtj_G_Ys04fF-15" value="测试集" style="rounded=1;whiteSpace=wrap;html=1;" vertex="1" parent="1">
          <mxGeometry x="120" y="260" width="80" height="20" as="geometry" />
        </mxCell>
        <mxCell id="ovginV6Umtj_G_Ys04fF-64" style="edgeStyle=orthogonalEdgeStyle;rounded=0;orthogonalLoop=1;jettySize=auto;html=1;exitX=0.5;exitY=1;exitDx=0;exitDy=0;fillColor=#dae8fc;strokeColor=#6c8ebf;" edge="1" parent="1" source="ovginV6Umtj_G_Ys04fF-16" target="ovginV6Umtj_G_Ys04fF-13">
          <mxGeometry relative="1" as="geometry">
            <Array as="points">
              <mxPoint x="160" y="380" />
              <mxPoint x="320" y="380" />
            </Array>
          </mxGeometry>
        </mxCell>
        <mxCell id="ovginV6Umtj_G_Ys04fF-16" value="训练集" style="rounded=1;whiteSpace=wrap;html=1;" vertex="1" parent="1">
          <mxGeometry x="120" y="335" width="80" height="20" as="geometry" />
        </mxCell>
        <mxCell id="ovginV6Umtj_G_Ys04fF-63" style="edgeStyle=orthogonalEdgeStyle;rounded=0;orthogonalLoop=1;jettySize=auto;html=1;exitX=0.5;exitY=1;exitDx=0;exitDy=0;entryX=0;entryY=0.5;entryDx=0;entryDy=0;fillColor=#dae8fc;strokeColor=#6c8ebf;" edge="1" parent="1" source="ovginV6Umtj_G_Ys04fF-17" target="ovginV6Umtj_G_Ys04fF-13">
          <mxGeometry relative="1" as="geometry" />
        </mxCell>
        <mxCell id="ovginV6Umtj_G_Ys04fF-17" value="模型优化" style="rounded=1;whiteSpace=wrap;html=1;" vertex="1" parent="1">
          <mxGeometry x="185" y="300" width="80" height="20" as="geometry" />
        </mxCell>
        <mxCell id="ovginV6Umtj_G_Ys04fF-59" style="edgeStyle=orthogonalEdgeStyle;rounded=0;orthogonalLoop=1;jettySize=auto;html=1;exitX=0.5;exitY=1;exitDx=0;exitDy=0;entryX=1;entryY=0.5;entryDx=0;entryDy=0;fillColor=#dae8fc;strokeColor=#6c8ebf;" edge="1" parent="1" source="ovginV6Umtj_G_Ys04fF-18" target="ovginV6Umtj_G_Ys04fF-19">
          <mxGeometry relative="1" as="geometry" />
        </mxCell>
        <mxCell id="ovginV6Umtj_G_Ys04fF-60" style="edgeStyle=orthogonalEdgeStyle;rounded=0;orthogonalLoop=1;jettySize=auto;html=1;exitX=0.5;exitY=0;exitDx=0;exitDy=0;entryX=1;entryY=0.5;entryDx=0;entryDy=0;fillColor=#dae8fc;strokeColor=#6c8ebf;" edge="1" parent="1" source="ovginV6Umtj_G_Ys04fF-18" target="ovginV6Umtj_G_Ys04fF-20">
          <mxGeometry relative="1" as="geometry" />
        </mxCell>
        <mxCell id="ovginV6Umtj_G_Ys04fF-18" value="数据标签" style="rounded=1;whiteSpace=wrap;html=1;" vertex="1" parent="1">
          <mxGeometry x="660" y="285" width="80" height="20" as="geometry" />
        </mxCell>
        <mxCell id="ovginV6Umtj_G_Ys04fF-62" style="edgeStyle=orthogonalEdgeStyle;rounded=0;orthogonalLoop=1;jettySize=auto;html=1;exitX=0.5;exitY=1;exitDx=0;exitDy=0;entryX=0.5;entryY=1;entryDx=0;entryDy=0;fillColor=#dae8fc;strokeColor=#6c8ebf;" edge="1" parent="1" source="ovginV6Umtj_G_Ys04fF-19" target="ovginV6Umtj_G_Ys04fF-13">
          <mxGeometry relative="1" as="geometry" />
        </mxCell>
        <mxCell id="ovginV6Umtj_G_Ys04fF-19" value="损失函数" style="rounded=1;whiteSpace=wrap;html=1;" vertex="1" parent="1">
          <mxGeometry x="580" y="335" width="80" height="20" as="geometry" />
        </mxCell>
        <mxCell id="ovginV6Umtj_G_Ys04fF-20" value="评价矩阵" style="rounded=1;whiteSpace=wrap;html=1;" vertex="1" parent="1">
          <mxGeometry x="580" y="240" width="80" height="20" as="geometry" />
        </mxCell>
        <mxCell id="ovginV6Umtj_G_Ys04fF-58" style="edgeStyle=orthogonalEdgeStyle;rounded=0;orthogonalLoop=1;jettySize=auto;html=1;exitX=0.5;exitY=1;exitDx=0;exitDy=0;entryX=0;entryY=0.5;entryDx=0;entryDy=0;fillColor=#dae8fc;strokeColor=#6c8ebf;" edge="1" parent="1" source="ovginV6Umtj_G_Ys04fF-21" target="ovginV6Umtj_G_Ys04fF-19">
          <mxGeometry relative="1" as="geometry" />
        </mxCell>
        <mxCell id="ovginV6Umtj_G_Ys04fF-61" style="edgeStyle=orthogonalEdgeStyle;rounded=0;orthogonalLoop=1;jettySize=auto;html=1;exitX=0.5;exitY=0;exitDx=0;exitDy=0;entryX=0;entryY=0.5;entryDx=0;entryDy=0;fillColor=#dae8fc;strokeColor=#6c8ebf;" edge="1" parent="1" source="ovginV6Umtj_G_Ys04fF-21" target="ovginV6Umtj_G_Ys04fF-20">
          <mxGeometry relative="1" as="geometry" />
        </mxCell>
        <mxCell id="ovginV6Umtj_G_Ys04fF-21" value="预测值" style="rounded=1;whiteSpace=wrap;html=1;" vertex="1" parent="1">
          <mxGeometry x="500" y="285" width="80" height="20" as="geometry" />
        </mxCell>
        <mxCell id="ovginV6Umtj_G_Ys04fF-66" value="" style="shape=flexArrow;endArrow=classic;startArrow=classic;html=1;rounded=0;entryX=0.5;entryY=1;entryDx=0;entryDy=0;dashed=1;exitX=0.5;exitY=0;exitDx=0;exitDy=0;" edge="1" parent="1" source="ovginV6Umtj_G_Ys04fF-19" target="ovginV6Umtj_G_Ys04fF-20">
          <mxGeometry width="100" height="100" relative="1" as="geometry">
            <mxPoint x="620" y="330" as="sourcePoint" />
            <mxPoint x="460" y="200" as="targetPoint" />
          </mxGeometry>
        </mxCell>
        <mxCell id="ovginV6Umtj_G_Ys04fF-68" value="" style="endArrow=none;dashed=1;html=1;dashPattern=1 3;strokeWidth=2;rounded=0;strokeColor=#99FFFF;" edge="1" parent="1">
          <mxGeometry width="50" height="50" relative="1" as="geometry">
            <mxPoint x="390" y="280" as="sourcePoint" />
            <mxPoint x="422" y="200" as="targetPoint" />
          </mxGeometry>
        </mxCell>
        <mxCell id="ovginV6Umtj_G_Ys04fF-72" value="" style="rounded=1;whiteSpace=wrap;html=1;fillColor=none;dashed=1;strokeColor=#FF0000;" vertex="1" parent="1">
          <mxGeometry x="-35" y="220" width="790" height="200" as="geometry" />
        </mxCell>
        <mxCell id="ovginV6Umtj_G_Ys04fF-73" value="数据驱动的网络模型训练" style="text;html=1;align=center;verticalAlign=middle;resizable=0;points=[];autosize=1;strokeColor=none;fillColor=none;" vertex="1" parent="1">
          <mxGeometry x="-10" y="370" width="160" height="30" as="geometry" />
        </mxCell>
        <mxCell id="ovginV6Umtj_G_Ys04fF-75" value="a" style="text;html=1;align=center;verticalAlign=middle;resizable=0;points=[];autosize=1;strokeColor=none;fillColor=none;" vertex="1" parent="1">
          <mxGeometry x="345" y="120" width="30" height="30" as="geometry" />
        </mxCell>
        <mxCell id="ovginV6Umtj_G_Ys04fF-78" value="" style="shape=flexArrow;endArrow=classic;html=1;rounded=0;strokeColor=#6c8ebf;fillColor=#dae8fc;" edge="1" parent="1">
          <mxGeometry width="50" height="50" relative="1" as="geometry">
            <mxPoint x="359.5" y="20" as="sourcePoint" />
            <mxPoint x="359.5" y="80" as="targetPoint" />
          </mxGeometry>
        </mxCell>
        <mxCell id="ovginV6Umtj_G_Ys04fF-79" value="约束" style="text;html=1;align=center;verticalAlign=middle;resizable=0;points=[];autosize=1;" vertex="1" parent="1">
          <mxGeometry x="335" y="-10" width="50" height="30" as="geometry" />
        </mxCell>
        <mxCell id="ovginV6Umtj_G_Ys04fF-80" value="权值调整" style="text;html=1;align=center;verticalAlign=middle;resizable=0;points=[];autosize=1;strokeColor=none;fillColor=none;" vertex="1" parent="1">
          <mxGeometry x="475" y="380" width="70" height="30" as="geometry" />
        </mxCell>
        <mxCell id="ovginV6Umtj_G_Ys04fF-81" value="b" style="text;html=1;align=center;verticalAlign=middle;resizable=0;points=[];autosize=1;strokeColor=none;fillColor=none;" vertex="1" parent="1">
          <mxGeometry x="345" y="430" width="30" height="30" as="geometry" />
        </mxCell>
      </root>
    </mxGraphModel>
  </diagram>
  <diagram id="CqhVgslWbwmqZQYB-1GC" name="第 2 页">
    <mxGraphModel dx="867" dy="482" grid="1" gridSize="10" guides="1" tooltips="1" connect="1" arrows="1" fold="1" page="1" pageScale="1" pageWidth="827" pageHeight="1169" math="0" shadow="0">
      <root>
        <mxCell id="0" />
        <mxCell id="1" parent="0" />
      </root>
    </mxGraphModel>
  </diagram>
</mxfile>
